<svg width="302" height="275" xmlns="http://www.w3.org/2000/svg" xmlns:xlink="http://www.w3.org/1999/xlink" overflow="hidden"><defs><clipPath id="clip0"><rect x="699" y="134" width="302" height="275"/></clipPath></defs><g clip-path="url(#clip0)" transform="translate(-699 -134)"><path d="M984.466 206.813 925.5 206.813 925.5 184.126 875.443 134 774.5 134 774.5 206.813 715.534 206.813C706.402 206.813 699 214.228 699 223.375L699 334.001C699 343.148 706.402 350.563 715.534 350.563L774.5 350.563 774.5 409 925.5 409 925.5 350.563 984.466 350.563C993.597 350.563 1001 343.148 1001 334.001L1001 223.375C1001 214.228 993.597 206.813 984.466 206.813ZM877.513 145.794 913.725 182.067C913.739 182.08 913.738 182.102 913.725 182.115 913.719 182.121 913.71 182.125 913.701 182.125L877.454 182.125 877.454 145.818C877.455 145.799 877.47 145.784 877.489 145.784 877.498 145.785 877.507 145.788 877.513 145.794ZM781.364 140.875 870.591 140.875 870.591 189 918.636 189 918.636 237.125 781.364 237.125ZM918.636 402.125 781.364 402.125 781.364 305.875 918.636 305.875ZM994.136 334.001C994.136 339.35 989.806 343.688 984.466 343.688L925.5 343.688 925.5 299 774.5 299 774.5 343.688 715.534 343.688C710.193 343.688 705.863 339.35 705.863 334.001L705.863 223.375C705.863 218.025 710.193 213.688 715.534 213.688L774.5 213.688 774.5 244 925.5 244 925.5 213.688 984.466 213.688C989.806 213.688 994.136 218.025 994.136 223.375Z" fill="#0D0D0D" fill-rule="evenodd"/><path d="M740 240C740 243.866 736.866 247 733 247 729.134 247 726 243.866 726 240 726 236.134 729.134 233 733 233 736.866 233 740 236.134 740 240Z" fill-rule="evenodd"/><path d="M891.615 361.608 891.615 370.073 898.158 369.928 898.158 361.608ZM874.806 352.005 874.806 359.092 881.107 359.092 881.107 352.005ZM818.408 352.005 818.408 359.092 824.709 359.092 824.709 352.005ZM891.483 349.32 898.532 349.32C900.177 349.32 901 350.231 901 352.053L901 372.855 898.114 372.855 898.114 372.202C896.954 372.379 895.793 372.549 894.633 372.71 893.194 372.903 892.041 373 891.174 373 889.573 373 888.773 372.129 888.773 370.388L888.773 361.801C888.773 359.995 889.603 359.092 891.262 359.092L898.158 359.092 898.158 352.005 891.857 352.005 891.857 356.02 889.015 356.02 889.015 352.053C889.015 350.231 889.838 349.32 891.483 349.32ZM874.431 349.32 881.481 349.32C883.126 349.32 883.948 350.231 883.948 352.053L883.948 360.519 882.957 361.656 874.806 361.656 874.806 370.17 881.107 370.17 881.107 365.864 883.948 365.864 883.948 370.122C883.948 371.944 883.126 372.855 881.481 372.855L874.431 372.855C872.786 372.855 871.964 371.944 871.964 370.122L871.964 352.053C871.964 350.231 872.786 349.32 874.431 349.32ZM831.296 349.32 834.05 349.32 837.068 367.461 840.196 349.32 842.752 349.32 845.88 367.461 848.898 349.32 851.652 349.32 847.224 372.903 844.603 372.903 841.452 355.028 838.302 372.903 835.724 372.903ZM818.034 349.32 825.084 349.32C826.728 349.32 827.551 350.231 827.551 352.053L827.551 360.519 826.56 361.656 818.408 361.656 818.408 370.17 824.709 370.17 824.709 365.864 827.551 365.864 827.551 370.122C827.551 371.944 826.728 372.855 825.084 372.855L818.034 372.855C816.389 372.855 815.567 371.944 815.567 370.122L815.567 352.053C815.567 350.231 816.389 349.32 818.034 349.32ZM861.764 341.991 864.65 341.991 864.65 349.32 868.395 349.32 868.395 352.15 864.65 352.15 864.65 370.025 868.395 370.025 868.395 372.855 864.231 372.855C862.586 372.855 861.764 371.944 861.764 370.122L861.764 352.15 859.187 352.15 859.187 349.32 861.764 349.32ZM799 335 801.291 335 810.323 362.357 810.323 335 813.209 335 813.209 372.855 811.095 372.855 801.886 345.014 801.886 372.855 799 372.855Z" fill-rule="evenodd"/></g></svg>